<svg width="40" height="40" viewBox="0 0 40 40" fill="none" xmlns="http://www.w3.org/2000/svg">
<circle cx="18" cy="18" r="18" fill="#FFA501"/>
<path d="M33.0208 14.6525H21.7361C21.2759 14.653 20.8346 14.8255 20.5092 15.1321C20.1837 15.4386 20.0006 15.8542 20 16.2878V38.3646C20.0006 38.7982 20.1837 39.2138 20.5092 39.5204C20.8346 39.8269 21.2759 39.9994 21.7361 40H33.0208C33.4811 39.9994 33.9223 39.8269 34.2478 39.5204C34.5732 39.2138 34.7563 38.7982 34.7569 38.3646V16.2878C34.7563 15.8542 34.5732 15.4386 34.2478 15.1321C33.9223 14.8255 33.4811 14.653 33.0208 14.6525V14.6525ZM29.4097 15.4701L29.1656 16.2878H25.5474L25.3304 15.4701H29.4097ZM33.8889 38.3646C33.8886 38.5814 33.797 38.7892 33.6343 38.9425C33.4716 39.0958 33.251 39.182 33.0208 39.1823H21.7361C21.506 39.182 21.2854 39.0958 21.1226 38.9425C20.9599 38.7892 20.8684 38.5814 20.8681 38.3646V16.2878C20.8684 16.071 20.9599 15.8632 21.1226 15.7099C21.2854 15.5566 21.506 15.4704 21.7361 15.4701H24.4352L24.7873 16.7958C24.8108 16.8842 24.865 16.9627 24.9413 17.0188C25.0175 17.075 25.1115 17.1054 25.2083 17.1055H29.4944C29.5889 17.1054 29.6809 17.0763 29.7564 17.0226C29.8318 16.9688 29.8865 16.8933 29.9121 16.8075L30.3114 15.4701H33.0208C33.251 15.4704 33.4716 15.5566 33.6343 15.7099C33.797 15.8632 33.8886 16.071 33.8889 16.2878V38.3646Z" fill="black"/>
<path d="M25.2083 37.547H22.1701C22.055 37.547 21.9446 37.5901 21.8632 37.6667C21.7818 37.7434 21.7361 37.8474 21.7361 37.9558C21.7361 38.0643 21.7818 38.1682 21.8632 38.2449C21.9446 38.3216 22.055 38.3647 22.1701 38.3647H25.2083C25.3234 38.3647 25.4338 38.3216 25.5152 38.2449C25.5966 38.1682 25.6423 38.0643 25.6423 37.9558C25.6423 37.8474 25.5966 37.7434 25.5152 37.6667C25.4338 37.5901 25.3234 37.547 25.2083 37.547Z" fill="black"/>
<path d="M26.9445 37.547H26.5104C26.3953 37.547 26.2849 37.5901 26.2035 37.6667C26.1221 37.7434 26.0764 37.8474 26.0764 37.9558C26.0764 38.0643 26.1221 38.1682 26.2035 38.2449C26.2849 38.3216 26.3953 38.3647 26.5104 38.3647H26.9445C27.0596 38.3647 27.17 38.3216 27.2514 38.2449C27.3328 38.1682 27.3785 38.0643 27.3785 37.9558C27.3785 37.8474 27.3328 37.7434 27.2514 37.6667C27.17 37.5901 27.0596 37.547 26.9445 37.547Z" fill="black"/>
<path d="M28.9039 24.9314C28.855 24.9038 28.8009 24.8855 28.7445 24.8776C28.6881 24.8697 28.6306 24.8724 28.5753 24.8854C28.52 24.8984 28.468 24.9216 28.4222 24.9535C28.3764 24.9855 28.3377 25.0256 28.3084 25.0717L25.7042 29.16C25.645 29.2529 25.6274 29.3643 25.6554 29.4695C25.6833 29.5747 25.7544 29.6651 25.8531 29.7209C25.9518 29.7767 26.07 29.7932 26.1817 29.7669C26.2934 29.7406 26.3894 29.6736 26.4486 29.5806L29.0528 25.4923C29.0821 25.4463 29.1015 25.3953 29.1099 25.3422C29.1183 25.2891 29.1155 25.2349 29.1017 25.1828C29.0879 25.1308 29.0633 25.0818 29.0293 25.0386C28.9954 24.9955 28.9528 24.9591 28.9039 24.9314Z" fill="black"/>
<path d="M30.3215 25.0265C30.2859 24.9846 30.2418 24.9497 30.1919 24.9238C30.1419 24.8979 30.0871 24.8815 30.0304 24.8756C29.916 24.8636 29.8012 24.895 29.7113 24.9628C29.6214 25.0305 29.5638 25.1292 29.5511 25.237C29.5384 25.3447 29.5717 25.4529 29.6437 25.5375L31.1628 27.3262L29.6437 29.1148C29.5717 29.1995 29.5384 29.3076 29.5511 29.4154C29.5638 29.5232 29.6214 29.6218 29.7113 29.6896C29.8012 29.7573 29.916 29.7887 30.0304 29.7767C30.1448 29.7648 30.2496 29.7105 30.3215 29.6258L32.0576 27.5817C32.1192 27.5092 32.1528 27.4191 32.1528 27.3262C32.1528 27.2333 32.1192 27.1432 32.0576 27.0707L30.3215 25.0265Z" fill="black"/>
<path d="M24.4354 29.6258C24.5073 29.7105 24.612 29.7648 24.7265 29.7767C24.8409 29.7887 24.9557 29.7573 25.0456 29.6896C25.1355 29.6218 25.1931 29.5232 25.2058 29.4154C25.2185 29.3076 25.1852 29.1995 25.1132 29.1148L23.5941 27.3262L25.1132 25.5375C25.1489 25.4956 25.1754 25.4475 25.1912 25.3959C25.2071 25.3443 25.2121 25.2903 25.2058 25.237C25.1995 25.1836 25.1821 25.1319 25.1546 25.0849C25.1271 25.0378 25.0901 24.9963 25.0456 24.9628C25.0011 24.9292 24.95 24.9042 24.8952 24.8893C24.8405 24.8743 24.7831 24.8697 24.7265 24.8756C24.6698 24.8815 24.6149 24.8979 24.565 24.9238C24.5151 24.9497 24.471 24.9846 24.4354 25.0265L22.6993 27.0706C22.6376 27.1432 22.6041 27.2333 22.6041 27.3262C22.6041 27.4191 22.6376 27.5092 22.6993 27.5817L24.4354 29.6258Z" fill="black"/>
</svg>
