<svg width="40" height="40" viewBox="0 0 40 40" fill="none" xmlns="http://www.w3.org/2000/svg">
<circle cx="18" cy="18" r="18" fill="#FFA501"/>
<path d="M15 15.6036V36.9499H23.024V38.4762H21.5574V40H33.4425V38.4762H31.9759V36.9499H40V15.6036H15ZM30.511 38.4762H24.489V36.9499H30.511V38.4762H30.511ZM38.5351 35.426H16.4649V32.3746H38.5351V35.426H38.5351ZM38.5351 30.8508H16.4649V17.1275H38.5351V30.8508H38.5351Z" fill="black"/>
<path d="M24.9582 21.2349L23.9223 20.1573L20.2388 23.9891L23.9223 27.8209L24.9582 26.7433L22.3105 23.9891L24.9582 21.2349Z" fill="black"/>
<path d="M31.0777 20.1573L30.0419 21.2349L32.6896 23.9891L30.0419 26.7433L31.0777 27.8209L34.7612 23.9891L31.0777 20.1573Z" fill="black"/>
<path d="M27.6319 19.3943L25.9313 28.2874L27.3681 28.5847L29.0687 19.6916L27.6319 19.3943Z" fill="black"/>
</svg>
