<svg width="40" height="40" viewBox="0 0 40 40" fill="none" xmlns="http://www.w3.org/2000/svg">
<circle cx="18" cy="18" r="18" fill="#FFA501"/>
<path d="M38.3871 17.5033H16.6129C16.1853 17.5039 15.7754 17.69 15.473 18.0208C15.1707 18.3515 15.0006 18.8 15 19.2677V34.2655C15.0006 34.7333 15.1707 35.1817 15.473 35.5125C15.7754 35.8433 16.1853 36.0294 16.6129 36.03H24.9244L24.3866 37.7944H23.0645C22.9576 37.7944 22.855 37.8409 22.7794 37.9236C22.7038 38.0064 22.6613 38.1186 22.6613 38.2355V39.1178H19.0323C18.9253 39.1178 18.8228 39.1642 18.7471 39.247C18.6715 39.3297 18.629 39.4419 18.629 39.5589C18.629 39.6759 18.6715 39.7881 18.7471 39.8708C18.8228 39.9535 18.9253 40 19.0323 40H36.7742C36.8811 40 36.9837 39.9535 37.0593 39.8708C37.1349 39.7881 37.1774 39.6759 37.1774 39.5589C37.1774 39.4419 37.1349 39.3297 37.0593 39.247C36.9837 39.1642 36.8811 39.1178 36.7742 39.1178H32.3387V38.2355C32.3387 38.1186 32.2962 38.0064 32.2206 37.9236C32.145 37.8409 32.0424 37.7944 31.9355 37.7944H30.6134L30.0756 36.03H38.3871C38.8147 36.0294 39.2246 35.8433 39.527 35.5125C39.8293 35.1817 39.9994 34.7333 40 34.2655V19.2677C39.9994 18.8 39.8293 18.3515 39.527 18.0208C39.2246 17.69 38.8147 17.5039 38.3871 17.5033ZM31.5323 38.6767V39.1178H23.4677V38.6767H31.5323ZM25.2369 37.7944L25.7747 36.03H29.2253L29.7631 37.7944H25.2369ZM39.1935 34.2655C39.1933 34.4994 39.1082 34.7236 38.957 34.889C38.8059 35.0544 38.6009 35.1475 38.3871 35.1478H16.6129C16.3991 35.1475 16.1941 35.0544 16.043 34.889C15.8918 34.7236 15.8067 34.4994 15.8065 34.2655V33.3833H39.1935V34.2655ZM21.8377 28.5311L21.6865 32.5011H21.2167L21.0655 28.5311H21.8377ZM21.121 27.6489L21.3901 25.8844H21.5131L21.7823 27.6489H21.121ZM21.4516 25.0022C21.0146 25.0022 20.6452 24.3962 20.6452 23.6789C20.6452 23.2262 21.0675 22.5684 21.4506 22.1046C21.7959 22.5237 22.2581 23.1936 22.2581 23.6789C22.2581 24.3962 21.8886 25.0022 21.4516 25.0022ZM25.8397 24.12L25.8871 24.2242V24.5611H24.2742V24.2242L24.3216 24.12H25.8397ZM24.7248 23.2377L25.0806 22.4597L25.4365 23.2377H24.7248ZM25.8871 25.4433V32.446C25.8873 32.4644 25.8884 32.4828 25.8906 32.5011H24.2707C24.2729 32.4828 24.274 32.4644 24.2742 32.446V25.4433H25.8871ZM29.5161 23.6789H30.7258V24.5611H30.3226C30.2156 24.5611 30.1131 24.6076 30.0375 24.6903C29.9618 24.773 29.9194 24.8852 29.9194 25.0022C29.9194 25.1192 29.9618 25.2314 30.0375 25.3141C30.1131 25.3968 30.2156 25.4433 30.3226 25.4433H30.7258V26.3255H29.5161C29.4092 26.3255 29.3066 26.372 29.231 26.4547C29.1554 26.5375 29.1129 26.6496 29.1129 26.7666C29.1129 26.8836 29.1554 26.9958 29.231 27.0786C29.3066 27.1613 29.4092 27.2078 29.5161 27.2078H30.7258V28.09H30.3226C30.2156 28.09 30.1131 28.1364 30.0375 28.2192C29.9618 28.3019 29.9194 28.4141 29.9194 28.5311C29.9194 28.6481 29.9618 28.7603 30.0375 28.843C30.1131 28.9257 30.2156 28.9722 30.3226 28.9722H30.7258V29.8544H29.5161C29.4092 29.8544 29.3066 29.9009 29.231 29.9836C29.1554 30.0663 29.1129 30.1785 29.1129 30.2955C29.1129 30.4125 29.1554 30.5247 29.231 30.6074C29.3066 30.6902 29.4092 30.7366 29.5161 30.7366H30.7258V32.5011H27.9032V21.9144H30.7258V22.7966H29.5161C29.4092 22.7966 29.3066 22.8431 29.231 22.9258C29.1554 23.0086 29.1129 23.1208 29.1129 23.2377C29.1129 23.3547 29.1554 23.4669 29.231 23.5497C29.3066 23.6324 29.4092 23.6789 29.5161 23.6789ZM34.3548 28.9722V32.446C34.355 32.4644 34.3562 32.4828 34.3584 32.5011H32.7384C32.7406 32.4828 32.7418 32.4644 32.7419 32.446V28.9722H34.3548ZM32.7419 28.09V27.7531L33.5484 25.9886L34.3548 27.7531V28.09H32.7419ZM39.1935 32.5011H35.1578C35.16 32.4828 35.1611 32.4644 35.1613 32.446V27.6489C35.1612 27.5804 35.1467 27.5128 35.119 27.4515L33.9093 24.8048C33.8757 24.7315 33.8242 24.6699 33.7604 24.6269C33.6967 24.5839 33.6233 24.5611 33.5484 24.5611C33.4735 24.5611 33.4001 24.5839 33.3363 24.6269C33.2726 24.6699 33.2211 24.7315 33.1875 24.8048L31.9778 27.4515C31.95 27.5128 31.9355 27.5804 31.9355 27.6489V32.446C31.9356 32.4644 31.9368 32.4828 31.939 32.5011H31.5323V21.4733C31.5323 21.3563 31.4898 21.2441 31.4142 21.1614C31.3385 21.0787 31.236 21.0322 31.129 21.0322H27.5C27.3931 21.0322 27.2905 21.0787 27.2149 21.1614C27.1393 21.2441 27.0968 21.3563 27.0968 21.4733V32.5011H26.69C26.6922 32.4828 26.6934 32.4644 26.6935 32.446V24.12C26.6935 24.0515 26.679 23.9839 26.6512 23.9226L25.4415 21.2759C25.408 21.2026 25.3564 21.1411 25.2927 21.098C25.229 21.055 25.1555 21.0322 25.0806 21.0322C25.0057 21.0322 24.9323 21.055 24.8686 21.098C24.8048 21.1411 24.7533 21.2026 24.7198 21.2759L23.5101 23.9226C23.4823 23.9839 23.4678 24.0515 23.4677 24.12V32.446C23.4679 32.4644 23.4691 32.4828 23.4713 32.5011H22.4934L22.6608 28.1082C22.6613 28.0982 22.6608 28.0883 22.6608 28.0778V28.0646C22.6599 28.0491 22.6582 28.0336 22.6557 28.0183V28.0172L22.2828 25.5685C22.751 25.1819 23.0645 24.4795 23.0645 23.6789C23.0645 22.5452 21.8634 21.2897 21.7263 21.1502C21.6516 21.0744 21.5535 21.0323 21.4516 21.0323C21.3497 21.0323 21.2516 21.0744 21.1769 21.1502C21.0398 21.2897 19.8387 22.5452 19.8387 23.6789C19.8387 24.4795 20.1522 25.1819 20.6205 25.5685L20.2475 28.0172V28.0183C20.2451 28.0336 20.2434 28.0491 20.2424 28.0646V28.0778C20.2424 28.0883 20.2419 28.0982 20.2424 28.1082L20.4098 32.5011H15.8065V19.2677C15.8067 19.0339 15.8918 18.8096 16.043 18.6443C16.1941 18.4789 16.3991 18.3858 16.6129 18.3855H38.3871C38.6009 18.3858 38.8059 18.4789 38.957 18.6443C39.1082 18.8096 39.1933 19.0339 39.1935 19.2677V32.5011Z" fill="black"/>
<path d="M19.4355 33.8245H17.0161C16.9092 33.8245 16.8066 33.8709 16.731 33.9537C16.6554 34.0364 16.6129 34.1486 16.6129 34.2656C16.6129 34.3826 16.6554 34.4948 16.731 34.5775C16.8066 34.6602 16.9092 34.7067 17.0161 34.7067H19.4355C19.5424 34.7067 19.645 34.6602 19.7206 34.5775C19.7962 34.4948 19.8387 34.3826 19.8387 34.2656C19.8387 34.1486 19.7962 34.0364 19.7206 33.9537C19.645 33.8709 19.5424 33.8245 19.4355 33.8245Z" fill="black"/>
<path d="M21.0484 33.8245H20.6452C20.5382 33.8245 20.4357 33.8709 20.36 33.9537C20.2844 34.0364 20.2419 34.1486 20.2419 34.2656C20.2419 34.3826 20.2844 34.4948 20.36 34.5775C20.4357 34.6602 20.5382 34.7067 20.6452 34.7067H21.0484C21.1553 34.7067 21.2579 34.6602 21.3335 34.5775C21.4091 34.4948 21.4516 34.3826 21.4516 34.2656C21.4516 34.1486 21.4091 34.0364 21.3335 33.9537C21.2579 33.8709 21.1553 33.8245 21.0484 33.8245Z" fill="black"/>
<path d="M25.0807 25.8844C24.9737 25.8844 24.8712 25.9309 24.7955 26.0136C24.7199 26.0963 24.6774 26.2085 24.6774 26.3255V31.1777C24.6774 31.2947 24.7199 31.4069 24.7955 31.4897C24.8712 31.5724 24.9737 31.6189 25.0807 31.6189C25.1876 31.6189 25.2902 31.5724 25.3658 31.4897C25.4414 31.4069 25.4839 31.2947 25.4839 31.1777V26.3255C25.4839 26.2085 25.4414 26.0963 25.3658 26.0136C25.2902 25.9309 25.1876 25.8844 25.0807 25.8844Z" fill="black"/>
<path d="M33.5484 29.4133C33.4414 29.4133 33.3389 29.4598 33.2632 29.5425C33.1876 29.6253 33.1451 29.7375 33.1451 29.8544V31.1778C33.1451 31.2948 33.1876 31.407 33.2632 31.4897C33.3389 31.5724 33.4414 31.6189 33.5484 31.6189C33.6553 31.6189 33.7579 31.5724 33.8335 31.4897C33.9091 31.407 33.9516 31.2948 33.9516 31.1778V29.8544C33.9516 29.7375 33.9091 29.6253 33.8335 29.5425C33.7579 29.4598 33.6553 29.4133 33.5484 29.4133Z" fill="black"/>
<path d="M17.0161 20.1499H20.2419C20.3489 20.1499 20.4515 20.1034 20.5271 20.0207C20.6027 19.938 20.6452 19.8258 20.6452 19.7088C20.6452 19.5918 20.6027 19.4796 20.5271 19.3969C20.4515 19.3142 20.3489 19.2677 20.2419 19.2677H17.0161C16.9092 19.2677 16.8066 19.3142 16.731 19.3969C16.6554 19.4796 16.6129 19.5918 16.6129 19.7088C16.6129 19.8258 16.6554 19.938 16.731 20.0207C16.8066 20.1034 16.9092 20.1499 17.0161 20.1499Z" fill="black"/>
<path d="M17.0161 21.4733H17.8226C17.9295 21.4733 18.0321 21.4268 18.1077 21.3441C18.1833 21.2614 18.2258 21.1492 18.2258 21.0322C18.2258 20.9152 18.1833 20.803 18.1077 20.7203C18.0321 20.6375 17.9295 20.5911 17.8226 20.5911H17.0161C16.9092 20.5911 16.8066 20.6375 16.731 20.7203C16.6554 20.803 16.6129 20.9152 16.6129 21.0322C16.6129 21.1492 16.6554 21.2614 16.731 21.3441C16.8066 21.4268 16.9092 21.4733 17.0161 21.4733Z" fill="black"/>
<path d="M36.3709 31.6189H37.9838C38.0908 31.6189 38.1933 31.5724 38.269 31.4897C38.3446 31.407 38.3871 31.2948 38.3871 31.1778C38.3871 31.0608 38.3446 30.9486 38.269 30.8659C38.1933 30.7832 38.0908 30.7367 37.9838 30.7367H36.3709C36.264 30.7367 36.1614 30.7832 36.0858 30.8659C36.0102 30.9486 35.9677 31.0608 35.9677 31.1778C35.9677 31.2948 36.0102 31.407 36.0858 31.4897C36.1614 31.5724 36.264 31.6189 36.3709 31.6189Z" fill="black"/>
<path d="M37.5807 30.2956H37.9839C38.0908 30.2956 38.1934 30.2491 38.269 30.1664C38.3446 30.0836 38.3871 29.9714 38.3871 29.8544C38.3871 29.7375 38.3446 29.6253 38.269 29.5425C38.1934 29.4598 38.0908 29.4133 37.9839 29.4133H37.5807C37.4737 29.4133 37.3712 29.4598 37.2955 29.5425C37.2199 29.6253 37.1774 29.7375 37.1774 29.8544C37.1774 29.9714 37.2199 30.0836 37.2955 30.1664C37.3712 30.2491 37.4737 30.2956 37.5807 30.2956Z" fill="black"/>
</svg>
